<?xml version="1.0" encoding="utf-8"?>
<!-- Generator: Adobe Illustrator 18.0.0, SVG Export Plug-In . SVG Version: 6.00 Build 0)  -->
<!DOCTYPE svg PUBLIC "-//W3C//DTD SVG 1.1//EN" "http://www.w3.org/Graphics/SVG/1.1/DTD/svg11.dtd">
<svg version="1.1" id="Calque_1" xmlns="http://www.w3.org/2000/svg" xmlns:xlink="http://www.w3.org/1999/xlink" x="0px" y="0px"
	 viewBox="0 0 33 33" enable-background="new 0 0 33 33" xml:space="preserve">
<g>
	<g>
		<path fill="#F19E38" d="M32.2,16.5c0,6.3-4,12.1-10.1,14.3c-6,2.1-11.5,1.1-16.4-3.1c-3.1-2.7-4.8-6.3-5-10.5
			C0.3,9.7,5.7,3.1,13,1.5C19.9,0.1,26.7,3,30.2,9C31.5,11.2,32.2,13.8,32.2,16.5z M15,15.5c3,0,5.9,0,8.9,0c0.2,0,0.3,0,0.4-0.2
			c0.3-0.8,0.6-1.6,1-2.4c0.1-0.2,0-0.3-0.2-0.3c-0.5,0-0.9,0-1.4,0c0,0,0-0.1,0-0.1c0.1-0.5,0.1-0.9,0.2-1.4
			c0.1-0.6,0.1-0.6-0.5-0.6c-4.9,0-9.7,0-14.6,0c-0.6,0-0.6,0-0.7,0.7c-0.2,1.4-0.4,2.8-0.6,4.2c-0.3,2.4-0.7,4.7-1,7.1
			c-0.1,0.2-0.1,0.4,0.2,0.3c-0.2,0.5,0.2,0.3,0.4,0.3c4.9,0,9.8,0,14.7,0c0.3,0,0.4-0.1,0.6-0.3c1.1-1.9,2.3-3.8,3.5-5.7
			c0.3-0.5,0.6-0.9,0.9-1.4c-0.8,0-1.4,0-2.1,0C21.4,15.6,18.2,15.6,15,15.5C15,15.6,15,15.5,15,15.5z"/>
		<path fill="#FEFEFD" d="M14.9,15.6c3.2,0,6.4,0,9.7,0c0.7,0,1.4,0,2.1,0c-0.3,0.5-0.6,1-0.9,1.4c-1.2,1.9-2.3,3.8-3.5,5.7
			c-0.1,0.2-0.3,0.3-0.6,0.3c-4.9,0-9.8,0-14.7,0c-0.2,0-0.6,0.2-0.4-0.3c0.3-0.4,0.6-0.8,0.8-1.4l0,0c0.2-0.1,0.3-0.3,0.3-0.5l0,0
			c0.2,0,0.2-0.2,0.3-0.4l0,0c0.2-0.1,0.2-0.3,0.3-0.5l0,0c0.2-0.1,0.3-0.3,0.3-0.5l0,0c0.2-0.1,0.3-0.3,0.3-0.5l0,0
			C9,19.1,9.1,19,9,18.8l0,0c0.2-0.1,0.3-0.3,0.3-0.5l0,0c0.2,0,0.2-0.2,0.3-0.4l0,0c0.2-0.2,0.3-0.3,0.3-0.6l0,0
			c0.2,0,0.2-0.2,0.3-0.4l0,0c0.2-0.1,0.3-0.3,0.3-0.5l0,0c0.1-0.1,0.2-0.2,0.2-0.4l0,0c0.1,0,0.1,0,0.1-0.1l0,0
			c0.2-0.1,0.2-0.2,0.2-0.4l0,0c0.1,0,0.1,0,0.1-0.1l0,0c0.2-0.1,0.2-0.2,0.2-0.4l0,0c0.1,0,0.1,0,0.1-0.1l0,0
			c0.1-0.1,0.2-0.2,0.2-0.4l0,0c0.1,0,0.1,0,0.1-0.1l0,0c0.1,0,0.1-0.1,0.1-0.2l0,0c0.1,0,0.1-0.1,0.1-0.2l0,0c1,0,2,0,3,0l0,0
			c0,0.1,0,0.1,0.1,0.1l0,0C14.9,14.8,14.8,15.2,14.9,15.6z"/>
		<path fill="#FEFDFB" d="M6.5,22.4c0.3-2.4,0.7-4.7,1-7.1c0.2-1.4,0.4-2.8,0.6-4.2c0.1-0.7,0.1-0.7,0.7-0.7c4.9,0,9.7,0,14.6,0
			c0.6,0,0.6,0,0.5,0.6c-0.1,0.5-0.1,0.9-0.2,1.4c-4.2,0-8.4,0-12.5,0c-0.2,0-0.4-0.1-0.6,0.1c0,0,0,0,0,0c-0.5,1.4-1.1,2.7-1.6,4.1
			c-0.2,0.4-0.4,0.8-0.4,1.3l0,0c-0.2,0.1-0.2,0.3-0.2,0.5l0,0c-0.2,0.1-0.2,0.3-0.2,0.5l0,0c-0.2,0.1-0.2,0.3-0.2,0.5c0,0,0,0,0,0
			c-0.4,0.4-0.4,0.9-0.6,1.3C7,21.3,6.9,21.9,6.5,22.4z"/>
		<path fill="#FEFEFD" d="M10.5,12.6C10.5,12.6,10.6,12.5,10.5,12.6c0.2,0.1,0.4,0,0.6,0c4,0,8,0,12.1,0c0.2,0,0.3,0,0.5-0.1
			c0.5,0,0.9,0,1.4,0c0.3,0,0.3,0.1,0.2,0.3c-0.3,0.8-0.6,1.6-1,2.4c-0.1,0.2-0.2,0.2-0.4,0.2c-3,0-5.9,0-8.9,0c0-0.2,0-0.5,0-0.7
			c0-0.2,0.1-0.4-0.2-0.4c0,0,0,0,0,0c0-0.1,0-0.1-0.1-0.1c0,0,0,0,0,0c0,0,0-0.1,0-0.1c-1-0.1-2-0.2-2.9,0c0,0,0,0,0,0c0,0,0,0,0,0
			c-0.1,0-0.1,0.1-0.1,0.2l0,0c-0.1,0-0.1,0.1-0.1,0.2c0,0,0,0,0,0c-0.1,0-0.1,0-0.1,0.1c0,0,0,0,0,0c-0.2,0.1-0.2,0.2-0.2,0.4
			c0,0,0,0,0,0c-0.1,0-0.1,0-0.1,0.1c0,0,0,0,0,0C11,15.3,11,15.4,11,15.6c0,0,0,0,0,0c-0.1,0-0.1,0-0.1,0.1c0,0,0,0,0,0
			c-0.1,0.1-0.2,0.2-0.2,0.4c0,0,0,0,0,0c-0.1,0-0.1,0-0.1,0.1c0,0,0,0,0,0c-0.1,0.1-0.2,0.2-0.2,0.4c0,0,0,0,0,0
			c-0.2,0.1-0.3,0.3-0.3,0.5l0,0c-0.2,0-0.2,0.2-0.3,0.4c0,0,0,0,0,0c-0.2,0.2-0.3,0.3-0.3,0.6c0,0,0,0,0,0c-0.2,0-0.2,0.2-0.3,0.4
			c0,0,0,0,0,0c-0.2,0.1-0.3,0.3-0.3,0.5c0,0,0,0,0,0c-0.1,0.1-0.2,0.2-0.2,0.4c0,0,0,0,0,0c-0.2,0.1-0.3,0.3-0.3,0.5c0,0,0,0,0,0
			c-0.2,0.1-0.3,0.3-0.3,0.5l0,0C8.1,20.2,8,20.3,8,20.6c0,0,0,0,0,0c-0.2,0-0.2,0.2-0.3,0.4c0,0,0,0,0,0c-0.2,0.1-0.3,0.3-0.3,0.5
			c0,0,0,0,0,0c-0.2,0.1-0.2,0.3-0.3,0.4c0,0-0.1,0-0.1-0.1c0.1-0.2,0.1-0.3,0.2-0.5c0.2-0.6,0.6-1.2,0.7-1.9c0,0,0,0,0,0
			c0.1-0.1,0.2-0.3,0.2-0.5c0,0,0,0,0,0c0.1-0.1,0.2-0.3,0.2-0.5c0,0,0,0,0,0c0.1-0.1,0.2-0.3,0.2-0.5c0,0,0,0,0,0
			c0-0.1,0.1-0.1,0.1-0.2c0.7-1.6,1.3-3.2,2-4.9C10.6,12.8,10.7,12.7,10.5,12.6z"/>
		<path fill="#F8CE9B" d="M23.7,12.6c-0.1,0.1-0.3,0.1-0.5,0.1c-4,0-8,0-12.1,0c-0.2,0-0.4,0-0.6-0.1c0.2-0.1,0.4-0.1,0.6-0.1
			c4.2,0,8.4,0,12.5,0C23.7,12.5,23.7,12.5,23.7,12.6z"/>
		<path fill="#F5B970" d="M7.1,21.8c0.1-0.1,0.2-0.3,0.3-0.4c-0.1,0.5-0.5,0.9-0.8,1.4c-0.3,0-0.3-0.1-0.2-0.3
			c0.4-0.5,0.5-1.2,0.8-1.7c0.2-0.4,0.3-1,0.6-1.3c-0.2,0.7-0.5,1.2-0.7,1.9C7.2,21.4,7.1,21.6,7.1,21.8c-0.1,0-0.2,0-0.1,0.1
			C7,21.9,7.1,21.8,7.1,21.8z"/>
		<path fill="#F5B970" d="M14.8,14.4c0.3,0.1,0.2,0.3,0.2,0.4c0,0.2,0,0.5,0,0.7c0,0-0.1,0.1-0.1,0.1C14.8,15.2,14.9,14.8,14.8,14.4
			z"/>
		<path fill="#F5B970" d="M11.7,14.3C11.8,14.3,11.8,14.3,11.7,14.3c1-0.3,2-0.2,3-0.1c0,0,0,0.1,0,0.1
			C13.7,14.3,12.7,14.3,11.7,14.3z"/>
		<path fill="#F5B970" d="M9.6,17.9c0-0.3,0.1-0.4,0.3-0.6C9.9,17.6,9.8,17.8,9.6,17.9z"/>
		<path fill="#F5B970" d="M9,18.8c0-0.2,0.1-0.4,0.3-0.5C9.3,18.5,9.3,18.7,9,18.8z"/>
		<path fill="#F5B970" d="M10.2,17c0-0.2,0-0.4,0.3-0.5C10.4,16.7,10.3,16.9,10.2,17z"/>
		<path fill="#F5B970" d="M8.6,19.6c0-0.2,0-0.4,0.3-0.5C8.8,19.4,8.7,19.5,8.6,19.6z"/>
		<path fill="#F5B970" d="M8.3,20.1c0-0.2,0-0.4,0.3-0.5C8.5,19.8,8.5,20,8.3,20.1z"/>
		<path fill="#F5B970" d="M8,20.6c0-0.2,0-0.4,0.3-0.5C8.3,20.3,8.2,20.4,8,20.6z"/>
		<path fill="#F5B970" d="M7.4,21.4c0-0.2,0.1-0.4,0.3-0.5C7.7,21.1,7.7,21.3,7.4,21.4z"/>
		<path fill="#F5B970" d="M9.3,18.3c0-0.2,0.1-0.3,0.3-0.4C9.6,18.1,9.5,18.3,9.3,18.3z"/>
		<path fill="#F5B970" d="M9.9,17.4c0-0.2,0.1-0.3,0.3-0.4C10.1,17.2,10.1,17.4,9.9,17.4z"/>
		<path fill="#F5B970" d="M7.7,20.9c0-0.2,0.1-0.3,0.3-0.4C8,20.7,7.9,20.9,7.7,20.9z"/>
		<path fill="#F5B970" d="M10.4,16.5c0-0.2,0-0.3,0.2-0.4C10.7,16.3,10.6,16.5,10.4,16.5z"/>
		<path fill="#F5B970" d="M11.3,15.1c0-0.2,0-0.3,0.2-0.4C11.5,14.9,11.4,15.1,11.3,15.1z"/>
		<path fill="#F5B970" d="M8.9,19.2c0-0.2,0-0.3,0.2-0.4C9.1,19,9,19.1,8.9,19.2z"/>
		<path fill="#F5B970" d="M11,15.6c0-0.2,0-0.3,0.2-0.4C11.2,15.4,11.1,15.5,11,15.6z"/>
		<path fill="#F5B970" d="M10.7,16.1c0-0.2,0-0.3,0.2-0.4C10.9,15.9,10.9,16,10.7,16.1z"/>
		<path fill="#F5B970" d="M11.6,14.7c0-0.1,0-0.2,0.1-0.2C11.7,14.6,11.7,14.6,11.6,14.7z"/>
		<path fill="#F5B970" d="M11.7,14.5c0-0.1,0-0.2,0.1-0.2C11.8,14.4,11.7,14.5,11.7,14.5z"/>
		<path fill="#F5B970" d="M11.2,15.2C11.2,15.2,11.2,15.1,11.2,15.2C11.3,15.2,11.3,15.3,11.2,15.2z"/>
		<path fill="#F5B970" d="M11.5,14.8C11.5,14.7,11.5,14.7,11.5,14.8C11.6,14.7,11.5,14.8,11.5,14.8z"/>
		<path fill="#F5B970" d="M14.7,14.3C14.8,14.3,14.8,14.3,14.7,14.3C14.8,14.4,14.7,14.4,14.7,14.3z"/>
		<path fill="#F5B970" d="M10.6,16.2C10.6,16.1,10.6,16.1,10.6,16.2C10.7,16.1,10.7,16.2,10.6,16.2z"/>
		<path fill="#F5B970" d="M10.9,15.7C10.9,15.6,10.9,15.6,10.9,15.7C11,15.7,11,15.7,10.9,15.7z"/>
		<path fill="#F5B970" d="M10.5,12.6c0.2,0.1,0.1,0.2,0,0.3c-0.7,1.6-1.3,3.2-2,4.9c0,0.1-0.1,0.1-0.1,0.2c0-0.5,0.3-0.9,0.4-1.3
			C9.4,15.3,10,13.9,10.5,12.6z"/>
		<path fill="#F5B970" d="M8.5,17.9c0,0.2-0.1,0.3-0.2,0.5C8.3,18.2,8.3,18,8.5,17.9z"/>
		<path fill="#F5B970" d="M8.3,18.4c0,0.2-0.1,0.3-0.2,0.5C8.1,18.7,8.1,18.5,8.3,18.4z"/>
		<path fill="#F5B970" d="M8.1,18.9c0,0.2-0.1,0.3-0.2,0.5C7.9,19.2,7.9,19,8.1,18.9z"/>
		<path fill="#FEFEFD" d="M7.1,21.8c0,0-0.1,0.1-0.1,0.1C6.9,21.9,7,21.8,7.1,21.8C7.1,21.8,7.1,21.8,7.1,21.8z"/>
	</g>
</g>
</svg>
