<?xml version="1.0" encoding="utf-8"?>
<!-- Generator: Adobe Illustrator 18.0.0, SVG Export Plug-In . SVG Version: 6.00 Build 0)  -->
<!DOCTYPE svg PUBLIC "-//W3C//DTD SVG 1.1//EN" "http://www.w3.org/Graphics/SVG/1.1/DTD/svg11.dtd">
<svg version="1.1" id="Calque_1" xmlns="http://www.w3.org/2000/svg" xmlns:xlink="http://www.w3.org/1999/xlink" x="0px" y="0px"
	 viewBox="0 0 33 33" enable-background="new 0 0 33 33" xml:space="preserve">
<g>
	<g>
		<path fill="#F19E38" d="M32.6,16.5c0,6.7-4.1,12.8-10.4,15c-6.1,2.2-11.7,1.1-16.6-3.2c-3.2-2.9-4.9-6.6-5.1-11
			C0,9.3,5.6,2.4,13,0.7c7-1.5,14,1.6,17.5,7.9C31.9,11.1,32.6,13.7,32.6,16.5z M9.5,15.2c0.1,0,0.1,0,0.2,0c0.5,0.3,1,0.5,1.5,0.8
			c0.3,0.1,0.3,0.3,0.3,0.6c0,1.5,0,2.9,0,4.4c0,0.7,0.3,1.1,0.8,1.4c0.3,0.1,0.5,0.3,0.8,0.4c1.9,0.6,3.9,0.7,5.9,0.3
			c0.8-0.1,1.5-0.4,2.2-0.7c0.5-0.2,0.8-0.6,0.8-1.3c0-1.6,0-3.2,0-4.8c0-0.4,0.1-0.6,0.5-0.7c1.6-0.8,3.3-1.7,4.9-2.6
			c0.1-0.1,0.2-0.1,0.4-0.3c-1.4-0.4-2.7-0.8-4-1.2c-2.3-0.7-4.6-1.4-6.9-2.1c-0.3-0.1-0.7-0.1-1,0c-3.1,1-6.2,1.9-9.3,2.9
			c-0.5,0.1-0.9,0.3-1.5,0.5c1.3,0.7,2.5,1.3,3.7,2c0.3,0.1,0.4,0.3,0.4,0.6c0,0.7,0,1.4-0.1,2.1c0,0.2-0.1,0.4-0.2,0.6
			c-0.2,0.4-0.1,0.8,0.2,1.1c0.1,0.1,0.2,0.4,0.2,0.6c0.1,1.6-0.1,3.2-0.6,4.7c-0.3,1.1,0.3,2,1.4,1.8c0.5-0.1,0.7-0.3,0.7-0.8
			c0-0.2,0-0.4,0-0.5c-0.2-1.2-0.3-2.5-0.7-3.7c-0.4-1.2,0.1-2.5-0.7-3.6c0,0,0,0,0,0C9.5,16.8,9.5,16,9.5,15.2z"/>
		<path fill="#F6F7F7" d="M9.5,15.2c0,0.8,0,1.6,0,2.4c0,0,0,0,0,0c0.8,1.1,0.3,2.4,0.7,3.6c0.4,1.2,0.5,2.5,0.7,3.7
			c0,0.2,0,0.4,0,0.5c0,0.5-0.2,0.8-0.7,0.8c-1.1,0.1-1.8-0.7-1.4-1.8c0.5-1.5,0.7-3.1,0.6-4.7c0-0.2-0.1-0.4-0.2-0.6
			c-0.3-0.3-0.4-0.7-0.2-1.1c0.1-0.2,0.2-0.4,0.2-0.6c0-0.7,0-1.4,0.1-2.1c0-0.3-0.1-0.5-0.4-0.6c-1.2-0.6-2.4-1.3-3.7-2
			c0.5-0.2,1-0.3,1.5-0.5c3.1-1,6.2-2,9.3-2.9c0.3-0.1,0.7-0.1,1,0c2.3,0.7,4.6,1.4,6.9,2.1c1.3,0.4,2.6,0.8,4,1.2
			c-0.2,0.1-0.3,0.2-0.4,0.3c-1.6,0.9-3.3,1.7-4.9,2.6c-0.3,0.2-0.5,0.3-0.5,0.7c0,1.6,0,3.2,0,4.8c0,0.6-0.2,1.1-0.8,1.3
			c-0.7,0.3-1.5,0.6-2.2,0.7c-2,0.3-4,0.3-5.9-0.3c-0.3-0.1-0.6-0.2-0.8-0.4c-0.6-0.3-0.8-0.8-0.8-1.4c0-1.5,0-2.9,0-4.4
			c0-0.3-0.1-0.4-0.3-0.6c-0.5-0.2-1-0.5-1.5-0.8C9.7,15.2,9.6,15.2,9.5,15.2z"/>
	</g>
</g>
</svg>
